# Blender v2.78 (sub 0) OBJ File: 'routing_switch.blend'
# www.blender.org
mtllib routing_switch.mtl
o Cube
v 0.900146 -0.280744 -0.579414
v 0.880139 -0.300737 -0.579407
v 0.880154 -0.280752 -0.599422
v 0.898723 -0.291717 -0.579406
v 0.898732 -0.280752 -0.590385
v 0.897096 -0.291708 -0.590364
v 0.880144 -0.299326 -0.590382
v 0.891111 -0.299322 -0.579404
v 0.891101 -0.297698 -0.590362
v 0.891127 -0.280755 -0.597998
v 0.880150 -0.291722 -0.597996
v 0.891106 -0.291710 -0.596358
v 0.899666 -0.279861 0.580586
v 0.879657 -0.279839 0.600577
v 0.879659 -0.299855 0.580592
v 0.898242 -0.279853 0.591558
v 0.898244 -0.290832 0.580593
v 0.896606 -0.290809 0.591549
v 0.879654 -0.290814 0.599166
v 0.890629 -0.279844 0.599164
v 0.890612 -0.290802 0.597539
v 0.890633 -0.298439 0.580596
v 0.879655 -0.298428 0.591562
v 0.890612 -0.296799 0.591551
v -0.880342 -0.279248 0.599848
v -0.900334 -0.279257 0.579840
v -0.880341 -0.299264 0.579863
v -0.891315 -0.279246 0.598424
v -0.880345 -0.290221 0.598438
v -0.891302 -0.290204 0.596801
v -0.898919 -0.290231 0.579849
v -0.898920 -0.279249 0.590811
v -0.897291 -0.290206 0.590806
v -0.880345 -0.297836 0.590836
v -0.891311 -0.297842 0.579858
v -0.891301 -0.296201 0.590813
v -0.879845 -0.280161 -0.600151
v -0.879860 -0.300146 -0.580136
v -0.899854 -0.280139 -0.580160
v -0.879850 -0.291134 -0.598724
v -0.890817 -0.280156 -0.598738
v -0.890807 -0.291112 -0.597097
v -0.890833 -0.298723 -0.580142
v -0.879855 -0.298736 -0.591108
v -0.890811 -0.297100 -0.591100
v -0.898430 -0.280148 -0.591133
v -0.898439 -0.291111 -0.580151
v -0.896802 -0.291105 -0.591107
v 0.880343 0.279248 -0.599848
v 0.880341 0.299264 -0.579863
v 0.900334 0.279257 -0.579840
v 0.880346 0.290223 -0.598437
v 0.891313 0.279246 -0.598425
v 0.891302 0.290204 -0.596801
v 0.891314 0.297841 -0.579858
v 0.880345 0.297837 -0.590833
v 0.891301 0.296201 -0.590813
v 0.898920 0.279249 -0.590814
v 0.898920 0.290228 -0.579849
v 0.897292 0.290206 -0.590806
v 0.879845 0.280161 0.600152
v 0.899853 0.280139 0.580160
v 0.879860 0.300146 0.580136
v 0.890819 0.280156 0.598737
v 0.879849 0.291131 0.598725
v 0.890807 0.291112 0.597097
v 0.898438 0.291113 0.580151
v 0.898430 0.280148 0.591130
v 0.896801 0.291105 0.591107
v 0.879855 0.298735 0.591111
v 0.890830 0.298724 0.580142
v 0.890811 0.297100 0.591100
v -0.900146 0.280744 0.579414
v -0.880154 0.280752 0.599422
v -0.880139 0.300737 0.579407
v -0.898731 0.280752 0.590388
v -0.898724 0.291714 0.579406
v -0.897096 0.291708 0.590364
v -0.880150 0.291725 0.597995
v -0.891125 0.280755 0.597999
v -0.891106 0.291710 0.596358
v -0.891113 0.299321 0.579404
v -0.880144 0.299327 0.590379
v -0.891102 0.297698 0.590361
v -0.899666 0.279861 -0.580586
v -0.879659 0.299855 -0.580592
v -0.879657 0.279839 -0.600577
v -0.898243 0.290834 -0.580593
v -0.898243 0.279853 -0.591556
v -0.896606 0.290809 -0.591549
v -0.879655 0.298427 -0.591565
v -0.890630 0.298440 -0.580596
v -0.890612 0.296799 -0.591551
v -0.890631 0.279844 -0.599163
v -0.879654 0.290812 -0.599167
v -0.890612 0.290802 -0.597539
vt 0.9933 0.4944
vt 0.8067 0.4944
vt 0.8067 0.0056
vt 0.9933 0.0056
vt 0.1933 0.9944
vt 0.0067 0.9944
vt 0.0067 0.5056
vt 0.1933 0.5056
vt 0.3933 0.8278
vt 0.2067 0.8278
vt 0.2067 0.5056
vt 0.3933 0.5056
vt 0.3933 0.0056
vt 0.3933 0.4944
vt 0.0067 0.4944
vt 0.0067 0.0056
vt 0.5933 0.8278
vt 0.4067 0.8278
vt 0.4067 0.5056
vt 0.5933 0.5056
vt 0.5970 0.8278
vt 0.5970 0.8308
vt 0.5933 0.8308
vt 0.6000 0.8278
vt 0.6000 0.8308
vt 0.4067 0.0056
vt 0.4030 0.0056
vt 0.4030 0.0025
vt 0.4067 0.0025
vt 0.4000 0.0056
vt 0.4000 0.0025
vt 0.8067 0.4975
vt 0.8030 0.4975
vt 0.8030 0.4944
vt 0.8067 0.5000
vt 0.8030 0.5000
vt 0.5970 0.8333
vt 0.5933 0.5025
vt 0.5970 0.5025
vt 0.5970 0.5056
vt 0.5933 0.5000
vt 0.5970 0.5000
vt 0.1970 0.9944
vt 0.1970 0.9975
vt 0.1933 0.9975
vt 0.2000 0.9944
vt 0.2000 0.9975
vt 0.7933 0.0056
vt 0.7933 0.0025
vt 0.7970 0.0025
vt 0.7970 0.0056
vt 0.7933 0.0000
vt 0.7970 0.0000
vt 0.6000 0.5025
vt 0.1933 0.5025
vt 0.1970 0.5025
vt 0.1970 0.5056
vt 0.1933 0.5000
vt 0.1970 0.5000
vt 0.3970 0.8278
vt 0.3970 0.8308
vt 0.3933 0.8308
vt 0.4000 0.8278
vt 0.4000 0.8308
vt 0.7933 0.4944
vt 0.7970 0.4944
vt 0.7970 0.4975
vt 0.7933 0.4975
vt 0.8000 0.4944
vt 0.8000 0.4975
vt 0.2000 0.5025
vt 0.8030 0.0056
vt 0.8030 0.0025
vt 0.8067 0.0025
vt 0.8000 0.0056
vt 0.8000 0.0025
vt 0.4067 0.4944
vt 0.4067 0.4975
vt 0.4030 0.4975
vt 0.4030 0.4944
vt 0.4067 0.5000
vt 0.4030 0.5000
vt 0.3933 0.5025
vt 0.3970 0.5025
vt 0.3970 0.5056
vt 0.3933 0.5000
vt 0.3970 0.5000
vt 0.8030 0.0000
vt 0.9970 0.4944
vt 0.9970 0.4975
vt 0.9933 0.4975
vt 1.0000 0.4944
vt 1.0000 0.4975
vt 0.3933 0.0025
vt 0.3970 0.0025
vt 0.3970 0.0056
vt 0.3933 0.0000
vt 0.3970 0.0000
vt 0.4067 0.8308
vt 0.4030 0.8308
vt 0.4030 0.8278
vt 0.4067 0.8333
vt 0.4030 0.8333
vt 0.9970 0.5000
vt 0.0067 0.9975
vt 0.0030 0.9975
vt 0.0030 0.9944
vt 0.0067 1.0000
vt 0.0030 1.0000
vt 0.4030 0.5056
vt 0.4030 0.5025
vt 0.4067 0.5025
vt 0.4000 0.5056
vt 0.4000 0.5025
vt 0.0030 0.0056
vt 0.0030 0.0025
vt 0.0067 0.0025
vt 0.0000 0.0056
vt 0.0000 0.0025
vt 0.0000 0.9975
vt 0.2067 0.8308
vt 0.2030 0.8308
vt 0.2030 0.8278
vt 0.2067 0.8333
vt 0.2030 0.8333
vt 0.0030 0.5056
vt 0.0030 0.5025
vt 0.0067 0.5025
vt 0.0000 0.5056
vt 0.0000 0.5025
vt 0.0067 0.4975
vt 0.0030 0.4975
vt 0.0030 0.4944
vt 0.0067 0.5000
vt 0.0030 0.5000
vt 0.2000 0.8308
vt 0.2030 0.5056
vt 0.2030 0.5025
vt 0.2067 0.5025
vt 0.2000 0.5056
vt 0.2000 0.5025
vt 0.3970 0.4944
vt 0.3970 0.4975
vt 0.3933 0.4975
vt 0.4000 0.4944
vt 0.4000 0.4975
vt 0.9933 0.0025
vt 0.9970 0.0025
vt 0.9970 0.0056
vt 0.9933 0.0000
vt 0.9970 0.0000
vt 0.2030 0.5000
vt 0.6000 0.5056
vt 0.4000 0.4944
vt 0.9933 0.5000
vt 0.2000 0.5056
vt 0.4067 0.5000
vt 0.4000 0.5056
vt 0.0067 0.5000
vt 0.2067 0.5000
vt 0.0067 0.0000
vt 1.0000 0.0056
vt 0.0000 0.4944
vt 0.3933 0.5000
vn 0.0004 -0.0008 -1.0000
vn -0.0004 0.0008 1.0000
vn -1.0000 0.0003 -0.0004
vn 0.0003 1.0000 -0.0008
vn 1.0000 -0.0003 0.0004
vn 0.9922 -0.0889 -0.0880
vn 0.8971 -0.4373 -0.0628
vn 0.8250 -0.4002 -0.3989
vn 0.8974 -0.0641 -0.4365
vn 0.4366 -0.8974 -0.0626
vn 0.3995 -0.8254 -0.3988
vn 0.0882 -0.9922 -0.0877
vn 0.0634 -0.8976 -0.4363
vn 0.0637 -0.4376 -0.8969
vn 0.3998 -0.4003 -0.8245
vn 0.0888 -0.0892 -0.9920
vn 0.4373 -0.0643 -0.8970
vn 0.9921 -0.0887 0.0889
vn 0.8970 -0.0634 0.4374
vn 0.8247 -0.3995 0.4003
vn 0.8971 -0.4371 0.0642
vn 0.4365 -0.0630 0.8975
vn 0.3991 -0.3991 0.8255
vn 0.0880 -0.0877 0.9922
vn 0.0630 -0.4363 0.8976
vn 0.0630 -0.8969 0.4376
vn 0.3992 -0.8248 0.4004
vn 0.0881 -0.9921 0.0892
vn 0.4366 -0.8973 0.0643
vn -0.0889 -0.0877 0.9922
vn -0.4374 -0.0627 0.8971
vn -0.4001 -0.3988 0.8251
vn -0.0640 -0.4362 0.8975
vn -0.8975 -0.0629 0.4366
vn -0.8253 -0.3990 0.3995
vn -0.9922 -0.0881 0.0881
vn -0.8974 -0.4366 0.0634
vn -0.4372 -0.8971 0.0640
vn -0.4000 -0.8245 0.4001
vn -0.0888 -0.9920 0.0892
vn -0.0640 -0.8968 0.4376
vn -0.0881 -0.0892 -0.9921
vn -0.0632 -0.4376 -0.8969
vn -0.3994 -0.4001 -0.8249
vn -0.4365 -0.0640 -0.8974
vn -0.0636 -0.8975 -0.4362
vn -0.3997 -0.8252 -0.3991
vn -0.0888 -0.9922 -0.0877
vn -0.4372 -0.8971 -0.0630
vn -0.8974 -0.4367 -0.0635
vn -0.8249 -0.3996 -0.3996
vn -0.9921 -0.0882 -0.0888
vn -0.8971 -0.0635 -0.4373
vn 0.0889 0.0877 -0.9922
vn 0.0640 0.4363 -0.8975
vn 0.4001 0.3988 -0.8251
vn 0.4373 0.0627 -0.8971
vn 0.0640 0.8969 -0.4375
vn 0.4000 0.8245 -0.4001
vn 0.0888 0.9920 -0.0892
vn 0.4373 0.8970 -0.0640
vn 0.8974 0.4365 -0.0634
vn 0.8253 0.3990 -0.3996
vn 0.9922 0.0880 -0.0881
vn 0.8974 0.0628 -0.4366
vn 0.0881 0.0892 0.9921
vn 0.4366 0.0640 0.8973
vn 0.3994 0.4001 0.8249
vn 0.0633 0.4376 0.8969
vn 0.8971 0.0635 0.4372
vn 0.8249 0.3996 0.3996
vn 0.9921 0.0882 0.0888
vn 0.8973 0.4367 0.0635
vn 0.4372 0.8972 0.0630
vn 0.3997 0.8252 0.3992
vn 0.0887 0.9922 0.0878
vn 0.0636 0.8975 0.4363
vn -0.9922 0.0888 0.0880
vn -0.8974 0.0641 0.4365
vn -0.8250 0.4002 0.3990
vn -0.8971 0.4372 0.0628
vn -0.4372 0.0643 0.8970
vn -0.3998 0.4004 0.8245
vn -0.0888 0.0893 0.9920
vn -0.0637 0.4377 0.8968
vn -0.0634 0.8976 0.4362
vn -0.3995 0.8254 0.3988
vn -0.0882 0.9922 0.0877
vn -0.4367 0.8974 0.0626
vn -0.9921 0.0887 -0.0889
vn -0.8970 0.4372 -0.0642
vn -0.8247 0.3996 -0.4003
vn -0.8970 0.0634 -0.4373
vn -0.4366 0.8973 -0.0644
vn -0.3992 0.8248 -0.4004
vn -0.0881 0.9921 -0.0893
vn -0.0630 0.8969 -0.4377
vn -0.0630 0.4362 -0.8976
vn -0.3991 0.3991 -0.8254
vn -0.0880 0.0877 -0.9922
vn -0.4366 0.0629 -0.8975
vn -0.0003 -1.0000 0.0008
usemtl Material
s 1
f 49/1/1 3/2/1 37/3/1 87/4/1
f 14/5/2 61/6/2 74/7/2 25/8/2
f 26/9/3 73/10/3 85/11/3 39/12/3
f 50/13/4 86/14/4 75/15/4 63/16/4
f 1/17/5 51/18/5 62/19/5 13/20/5
f 1/17/6 4/21/7 6/22/8 5/23/9
f 4/21/7 8/24/10 9/25/11 6/22/8
f 2/26/12 7/27/13 9/28/11 8/29/10
f 7/27/13 11/30/14 12/31/15 9/28/11
f 3/2/16 10/32/17 12/33/15 11/34/14
f 10/32/17 5/35/9 6/36/8 12/33/15
f 6/22/8 9/25/11 12/37/15
f 13/20/18 16/38/19 18/39/20 17/40/21
f 16/38/19 20/41/22 21/42/23 18/39/20
f 14/5/24 19/43/25 21/44/23 20/45/22
f 19/43/25 23/46/26 24/47/27 21/44/23
f 15/48/28 22/49/29 24/50/27 23/51/26
f 22/49/29 17/52/21 18/53/20 24/50/27
f 18/39/20 21/42/23 24/54/27
f 25/8/30 28/55/31 30/56/32 29/57/33
f 28/55/31 32/58/34 33/59/35 30/56/32
f 26/9/36 31/60/37 33/61/35 32/62/34
f 31/60/37 35/63/38 36/64/39 33/61/35
f 27/65/40 34/66/41 36/67/39 35/68/38
f 34/66/41 29/69/33 30/70/32 36/67/39
f 30/56/32 33/59/35 36/71/39
f 37/3/42 40/72/43 42/73/44 41/74/45
f 40/72/43 44/75/46 45/76/47 42/73/44
f 38/77/48 43/78/49 45/79/47 44/80/46
f 43/78/49 47/81/50 48/82/51 45/79/47
f 39/12/52 46/83/53 48/84/51 47/85/50
f 46/83/53 41/86/45 42/87/44 48/84/51
f 42/73/44 45/76/47 48/88/51
f 49/1/54 52/89/55 54/90/56 53/91/57
f 52/89/55 56/92/58 57/93/59 54/90/56
f 50/13/60 55/94/61 57/95/59 56/96/58
f 55/94/61 59/97/62 60/98/63 57/95/59
f 51/18/64 58/99/65 60/100/63 59/101/62
f 58/99/65 53/102/57 54/103/56 60/100/63
f 54/90/56 57/93/59 60/104/63
f 61/6/66 64/105/67 66/106/68 65/107/69
f 64/105/67 68/108/70 69/109/71 66/106/68
f 62/19/72 67/110/73 69/111/71 68/112/70
f 67/110/73 71/113/74 72/114/75 69/111/71
f 63/16/76 70/115/77 72/116/75 71/117/74
f 70/115/77 65/118/69 66/119/68 72/116/75
f 66/106/68 69/109/71 72/120/75
f 73/10/78 76/121/79 78/122/80 77/123/81
f 76/121/79 80/124/82 81/125/83 78/122/80
f 74/7/84 79/126/85 81/127/83 80/128/82
f 79/126/85 83/129/86 84/130/87 81/127/83
f 75/15/88 82/131/89 84/132/87 83/133/86
f 82/131/89 77/134/81 78/135/80 84/132/87
f 78/122/80 81/125/83 84/136/87
f 85/11/90 88/137/91 90/138/92 89/139/93
f 88/137/91 92/140/94 93/141/95 90/138/92
f 86/14/96 91/142/97 93/143/95 92/144/94
f 91/142/97 95/145/98 96/146/99 93/143/95
f 87/4/100 94/147/101 96/148/99 95/149/98
f 94/147/101 89/150/93 90/151/92 96/148/99
f 90/138/92 93/141/95 96/152/99
f 1/17/6 13/20/18 17/40/21 4/21/7
f 4/21/7 17/40/21 22/153/29 8/24/10
f 8/29/10 22/49/29 15/48/28 2/26/12
f 2/26/12 38/77/48 44/80/46 7/27/13
f 7/27/13 44/80/46 40/154/43 11/30/14
f 11/34/14 40/72/43 37/3/42 3/2/16
f 3/2/16 49/1/54 53/91/57 10/32/17
f 10/32/17 53/91/57 58/155/65 5/35/9
f 5/23/9 58/99/65 51/18/64 1/17/6
f 14/5/24 25/8/30 29/57/33 19/43/25
f 19/43/25 29/57/33 34/156/41 23/46/26
f 23/51/26 34/66/41 27/65/40 15/48/28
f 13/20/18 62/19/72 68/112/70 16/38/19
f 16/38/19 68/112/70 64/157/67 20/41/22
f 20/45/22 64/105/67 61/6/66 14/5/24
f 26/9/36 39/12/52 47/85/50 31/60/37
f 31/60/37 47/85/50 43/158/49 35/63/38
f 35/68/38 43/78/49 38/77/48 27/65/40
f 25/8/30 74/7/84 80/128/82 28/55/31
f 28/55/31 80/128/82 76/159/79 32/58/34
f 32/62/34 76/121/79 73/10/78 26/9/36
f 39/12/52 85/11/90 89/139/93 46/83/53
f 46/83/53 89/139/93 94/160/101 41/86/45
f 41/74/45 94/147/101 87/4/100 37/3/42
f 50/13/60 63/16/76 71/117/74 55/94/61
f 55/94/61 71/117/74 67/161/73 59/97/62
f 59/101/62 67/110/73 62/19/72 51/18/64
f 49/1/54 87/4/100 95/149/98 52/89/55
f 52/89/55 95/149/98 91/162/97 56/92/58
f 56/96/58 91/142/97 86/14/96 50/13/60
f 63/16/76 75/15/88 83/133/86 70/115/77
f 70/115/77 83/133/86 79/163/85 65/118/69
f 65/107/69 79/126/85 74/7/84 61/6/66
f 75/15/88 86/14/96 92/144/94 82/131/89
f 82/131/89 92/144/94 88/164/91 77/134/81
f 77/123/81 88/137/91 85/11/90 73/10/78
f 2/26/102 15/48/102 27/65/102 38/77/102
