# Blender v2.78 (sub 0) OBJ File: 'host.blend'
# www.blender.org
mtllib host.mtl
o Cube
v -0.040982 -0.094367 1.037981
v -0.041175 -0.062441 1.039396
v -0.044192 -0.086459 -0.077092
v -0.044385 -0.054533 -0.075677
v 1.817835 -0.092531 1.032711
v 1.817642 -0.060605 1.034127
v 1.814625 -0.084623 -0.082362
v 1.814432 -0.052697 -0.080946
v 1.825923 -0.079653 -0.088263
v 1.826078 -0.051763 -0.077151
v -0.049383 -0.043710 -0.071179
v -0.049538 -0.071600 -0.082290
v 1.829383 0.963710 -0.408821
v 1.829537 0.991600 -0.397710
v -0.045924 0.999653 -0.391737
v -0.046079 0.971763 -0.402849
vt 0.0000 0.0000
vt 1.0000 0.0000
vt 1.0000 1.0000
vt 0.0000 1.0000
vt 0.0000 0.0000
vt 1.0000 0.0000
vt 1.0000 1.0000
vt 0.0000 1.0000
vt 0.0000 0.0000
vt 1.0000 0.0000
vt 1.0000 1.0000
vt 0.0000 1.0000
vt 0.6691 0.4981
vt 0.6787 0.4978
vt 0.6787 0.7964
vt 0.6691 0.7967
vt 0.6596 0.4978
vt 0.6691 0.4981
vt 0.6691 0.7967
vt 0.6596 0.7964
vt 0.6666 0.4978
vt 0.6666 0.0000
vt 1.0000 0.0000
vt 1.0000 0.4978
vt 0.3333 0.4978
vt 0.3333 0.0000
vt 0.6666 0.0000
vt 0.6666 0.4978
vt 0.0070 0.0000
vt 0.0070 0.5022
vt 0.0000 0.5022
vt 0.0000 0.0000
vt 0.6843 0.4978
vt 0.6843 0.7901
vt 0.6787 0.7963
vt 0.6787 0.5040
vt 0.6596 1.0000
vt 0.3333 1.0000
vt 0.3333 0.4978
vt 0.6596 0.4978
vt 0.6843 0.7901
vt 0.6843 0.4978
vt 0.6899 0.5040
vt 0.6899 0.7963
vt 0.3333 0.0000
vt 0.3333 0.5022
vn -0.0029 0.0443 -0.9990
vn 0.0029 -0.0443 0.9990
vn 0.0014 -0.3701 0.9290
vn -1.0000 -0.0062 0.0028
vn 1.0000 0.0062 -0.0028
vn 0.0010 -1.0000 -0.0071
vn -0.0010 1.0000 0.0071
vn -0.0014 0.3701 -0.9290
vn 1.0000 -0.0043 -0.0032
vn 0.0043 0.2937 0.9559
vn -1.0000 0.0043 0.0032
vn -0.0043 -0.2937 -0.9559
usemtl Material
s off
f 3/1/1 4/2/1 8/3/1 7/4/1
f 5/5/2 6/6/2 2/7/2 1/8/2
f 9/9/3 10/10/3 11/11/3 12/12/3
usemtl Material_host.png
f 1/13/4 2/14/4 4/15/4 3/16/4
f 7/17/5 8/18/5 6/19/5 5/20/5
f 3/21/6 7/22/6 5/23/6 1/24/6
f 8/25/7 4/26/7 2/27/7 6/28/7
f 13/29/8 16/30/8 15/31/8 14/32/8
f 9/33/9 13/34/9 14/35/9 10/36/9
f 10/37/10 14/38/10 15/39/10 11/40/10
f 11/41/11 15/42/11 16/43/11 12/44/11
f 13/29/12 9/45/12 12/46/12 16/30/12
