# Blender v2.78 (sub 0) OBJ File: 'firewall.blend'
# www.blender.org
mtllib firewall.mtl
o Cube
v 0.916142 -0.652477 -0.247493
v 0.925450 -0.658201 0.308691
v -0.926562 -0.673397 0.339526
v -0.935869 -0.667673 -0.216658
v 0.905730 0.643998 -0.233975
v 0.915036 0.638273 0.322208
v -0.936975 0.623077 0.353043
v -0.946282 0.628801 -0.203140
vt 0.0000 0.5000
vt 0.1766 0.5000
vt 0.1766 1.0000
vt 0.0000 1.0000
vt 1.0000 0.0000
vt 1.0000 0.5000
vt 0.8234 0.5000
vt 0.8234 0.0000
vt 0.3533 0.8500
vt 0.3533 0.5000
vt 0.5299 0.5000
vt 0.5299 0.8500
vt 0.4117 0.5000
vt 0.0000 0.5000
vt 0.0000 0.0000
vt 0.4117 0.0000
vt 0.1766 0.8500
vt 0.1766 0.5000
vt 0.3533 0.5000
vt 0.3533 0.8500
vt 0.8234 0.5000
vt 0.4117 0.5000
vt 0.4117 0.0000
vt 0.8234 0.0000
vn 0.0080 -0.9999 -0.0104
vn -0.0080 0.9999 0.0104
vn 0.9998 0.0082 -0.0166
vn 0.0167 -0.0103 0.9998
vn -0.9998 -0.0082 0.0166
vn -0.0167 0.0103 -0.9998
usemtl Material
s off
f 1/1/1 2/2/1 3/3/1 4/4/1
f 5/5/2 8/6/2 7/7/2 6/8/2
f 1/9/3 5/10/3 6/11/3 2/12/3
f 2/13/4 6/14/4 7/15/4 3/16/4
f 3/17/5 7/18/5 8/19/5 4/20/5
f 5/21/6 1/22/6 4/23/6 8/24/6
