# Blender v2.78 (sub 0) OBJ File: 'switch_infer.blend'
# www.blender.org
mtllib infered_switch.mtl
o Cube
v -0.320947 0.492629 1.313707
v -0.320947 0.492629 2.713707
v -2.320947 0.492629 2.713707
v -2.320947 0.492629 1.313707
v -0.320947 1.092629 1.313707
v -0.320948 1.092629 2.713707
v -2.320948 1.092629 2.713707
v -2.320947 1.092629 1.313707
vt 0.4118 0.0000
vt 0.8235 0.0000
vt 0.8235 0.5000
vt 0.4118 0.5000
vt 0.4118 0.0000
vt 0.4118 0.5000
vt 0.0000 0.5000
vt 0.0000 0.0000
vt 0.3529 0.5000
vt 0.5294 0.5000
vt 0.5294 0.8500
vt 0.3529 0.8500
vt 1.0000 0.0000
vt 1.0000 0.5000
vt 0.3529 0.8500
vt 0.1765 0.8500
vt 0.1765 0.5000
vt 0.3529 0.5000
vt 0.0000 0.5000
vt 0.1765 0.5000
vt 0.1765 1.0000
vt 0.0000 1.0000
vn 0.0000 -1.0000 0.0000
vn 0.0000 1.0000 0.0000
vn 1.0000 0.0000 0.0000
vn -0.0000 -0.0000 1.0000
vn -1.0000 -0.0000 -0.0000
vn 0.0000 0.0000 -1.0000
usemtl None
s off
f 1/1/1 2/2/1 3/3/1 4/4/1
f 5/5/2 8/6/2 7/7/2 6/8/2
f 1/9/3 5/10/3 6/11/3 2/12/3
f 2/2/4 6/13/4 7/14/4 3/3/4
f 3/15/5 7/16/5 8/17/5 4/18/5
f 5/19/6 1/20/6 4/21/6 8/22/6
